<svg xmlns="http://www.w3.org/2000/svg" xmlns:xlink="http://www.w3.org/1999/xlink" width="1461" height="124" preserveAspectRatio="xMidYMid" viewBox="0 0 1461 124" style="z-index:1;margin-right:-2px;display:block;background-repeat-y:initial;background-repeat-x:initial;background-color:#f1f2f3;animation-play-state:paused"><g style="animation-play-state:paused"><linearGradient id="lg-0.000808051657090525" x1="0" x2="1" y1="0" y2="0" style="animation-play-state:paused"><stop offset="0" stop-color="#6c6c6c" style="animation-play-state:paused"/><stop offset="1" stop-color="#6c6c6c" style="animation-play-state:paused"/></linearGradient><path fill="url(#lg-0.000808051657090525)" d="M 0 0 L 0 89.2327 Q 365.25 72.4683 730.5 44.6534 T 1461 87.1587 L 1461 0 Z" opacity=".31" style="opacity:.31;animation-play-state:paused"/><path fill="url(#lg-0.000808051657090525)" d="M 0 0 L 0 63.5666 Q 365.25 104.504 730.5 73.685 T 1461 63.2742 L 1461 0 Z" opacity=".31" style="opacity:.31;animation-play-state:paused"/><path fill="url(#lg-0.000808051657090525)" d="M 0 0 L 0 65.1513 Q 365.25 85.3258 730.5 47.3184 T 1461 42.4488 L 1461 0 Z" opacity=".31" style="opacity:.31;animation-play-state:paused"/><path fill="url(#lg-0.000808051657090525)" d="M 0 0 L 0 51.5396 Q 365.25 79.0373 730.5 59.4987 T 1461 64.2048 L 1461 0 Z" opacity=".31" style="opacity:.31;animation-play-state:paused"/><path fill="url(#lg-0.000808051657090525)" d="M 0 0 L 0 69.3186 Q 365.25 70.6763 730.5 39.7862 T 1461 31.7153 L 1461 0 Z" opacity=".31" style="opacity:.31;animation-play-state:paused"/><path fill="url(#lg-0.000808051657090525)" d="M 0 0 L 0 64.7542 Q 365.25 101.079 730.5 57.11 T 1461 83.0061 L 1461 0 Z" opacity=".31" style="opacity:.31;animation-play-state:paused"/></g></svg>